<?xml version="1.0" encoding="UTF-8"?>
<!--Generator: Apple Native CoreSVG 329-->
<!DOCTYPE svg
PUBLIC "-//W3C//DTD SVG 1.1//EN"
       "http://www.w3.org/Graphics/SVG/1.1/DTD/svg11.dtd">
<svg version="1.1" xmlns="http://www.w3.org/2000/svg" xmlns:xlink="http://www.w3.org/1999/xlink" viewBox="0 0 3300 2200">
 <!--glyph: "101E67", point size: 100.0, font version: "20.0d8e1", template writer version: "138.0.0"-->
 <style>.monochrome-0 {-sfsymbols-motion-group:1;-sfsymbols-layer-tags:circle.dotted.circle}
.monochrome-1 {-sfsymbols-motion-group:0;-sfsymbols-always-pulses:true;-sfsymbols-layer-tags:circle.dotted.circle}

.multicolor-0:tintColor {-sfsymbols-motion-group:1;-sfsymbols-layer-tags:circle.dotted.circle}
.multicolor-1:tintColor {-sfsymbols-motion-group:0;-sfsymbols-always-pulses:true;-sfsymbols-layer-tags:circle.dotted.circle}

.hierarchical-0:secondary {-sfsymbols-motion-group:1;-sfsymbols-layer-tags:circle.dotted.circle}
.hierarchical-1:primary {-sfsymbols-motion-group:0;-sfsymbols-layer-tags:circle.dotted.circle}

.SFSymbolsPreviewWireframe {fill:none;opacity:1.0;stroke:black;stroke-width:0.5}
</style>
 <g id="Notes">
  <rect height="2200" id="artboard" style="fill:white;opacity:1" width="3300" x="0" y="0"/>
  <line style="fill:none;stroke:black;opacity:1;stroke-width:0.5;" x1="263" x2="3036" y1="292" y2="292"/>
  <text style="stroke:none;fill:black;font-family:sans-serif;font-size:13;font-weight:bold;" transform="matrix(1 0 0 1 263 322)">Weight/Scale Variations</text>
  <text style="stroke:none;fill:black;font-family:sans-serif;font-size:13;text-anchor:middle;" transform="matrix(1 0 0 1 559.711 322)">Ultralight</text>
  <text style="stroke:none;fill:black;font-family:sans-serif;font-size:13;text-anchor:middle;" transform="matrix(1 0 0 1 856.422 322)">Thin</text>
  <text style="stroke:none;fill:black;font-family:sans-serif;font-size:13;text-anchor:middle;" transform="matrix(1 0 0 1 1153.13 322)">Light</text>
  <text style="stroke:none;fill:black;font-family:sans-serif;font-size:13;text-anchor:middle;" transform="matrix(1 0 0 1 1449.84 322)">Regular</text>
  <text style="stroke:none;fill:black;font-family:sans-serif;font-size:13;text-anchor:middle;" transform="matrix(1 0 0 1 1746.56 322)">Medium</text>
  <text style="stroke:none;fill:black;font-family:sans-serif;font-size:13;text-anchor:middle;" transform="matrix(1 0 0 1 2043.27 322)">Semibold</text>
  <text style="stroke:none;fill:black;font-family:sans-serif;font-size:13;text-anchor:middle;" transform="matrix(1 0 0 1 2339.98 322)">Bold</text>
  <text style="stroke:none;fill:black;font-family:sans-serif;font-size:13;text-anchor:middle;" transform="matrix(1 0 0 1 2636.69 322)">Heavy</text>
  <text style="stroke:none;fill:black;font-family:sans-serif;font-size:13;text-anchor:middle;" transform="matrix(1 0 0 1 2933.4 322)">Black</text>
  <line style="fill:none;stroke:black;opacity:1;stroke-width:0.5;" x1="263" x2="3036" y1="1903" y2="1903"/>
  <g transform="matrix(0.2 0 0 0.2 263 1933)">
   <path d="m46.2402 4.15039c21.7773 0 39.4531-17.627 39.4531-39.4043s-17.6758-39.4043-39.4531-39.4043c-21.7285 0-39.4043 17.627-39.4043 39.4043s17.6758 39.4043 39.4043 39.4043Zm0-7.42188c-17.6758 0-31.9336-14.3066-31.9336-31.9824s14.2578-31.9824 31.9336-31.9824 31.9824 14.3066 31.9824 31.9824-14.3066 31.9824-31.9824 31.9824Zm-17.9688-31.9824c0 2.14844 1.51367 3.61328 3.75977 3.61328h10.498v10.5957c0 2.19727 1.46484 3.71094 3.61328 3.71094 2.24609 0 3.71094-1.51367 3.71094-3.71094v-10.5957h10.5957c2.19727 0 3.71094-1.46484 3.71094-3.61328 0-2.19727-1.51367-3.71094-3.71094-3.71094h-10.5957v-10.5469c0-2.24609-1.46484-3.75977-3.71094-3.75977-2.14844 0-3.61328 1.51367-3.61328 3.75977v10.5469h-10.498c-2.24609 0-3.75977 1.51367-3.75977 3.71094Z"/>
  </g>
  <g transform="matrix(0.2 0 0 0.2 281.506 1933)">
   <path d="m58.5449 14.5508c27.4902 0 49.8047-22.3145 49.8047-49.8047s-22.3145-49.8047-49.8047-49.8047-49.8047 22.3145-49.8047 49.8047 22.3145 49.8047 49.8047 49.8047Zm0-8.30078c-22.9492 0-41.5039-18.5547-41.5039-41.5039s18.5547-41.5039 41.5039-41.5039 41.5039 18.5547 41.5039 41.5039-18.5547 41.5039-41.5039 41.5039Zm-22.6562-41.5039c0 2.39258 1.66016 4.00391 4.15039 4.00391h14.3555v14.4043c0 2.44141 1.66016 4.15039 4.05273 4.15039 2.44141 0 4.15039-1.66016 4.15039-4.15039v-14.4043h14.4043c2.44141 0 4.15039-1.61133 4.15039-4.00391 0-2.44141-1.70898-4.15039-4.15039-4.15039h-14.4043v-14.3555c0-2.49023-1.70898-4.19922-4.15039-4.19922-2.39258 0-4.05273 1.70898-4.05273 4.19922v14.3555h-14.3555c-2.49023 0-4.15039 1.70898-4.15039 4.15039Z"/>
  </g>
  <g transform="matrix(0.2 0 0 0.2 304.924 1933)">
   <path d="m74.8535 28.3203c35.1074 0 63.623-28.4668 63.623-63.5742s-28.5156-63.623-63.623-63.623-63.5742 28.5156-63.5742 63.623 28.4668 63.5742 63.5742 63.5742Zm0-9.08203c-30.127 0-54.4922-24.3652-54.4922-54.4922s24.3652-54.4922 54.4922-54.4922 54.4922 24.3652 54.4922 54.4922-24.3652 54.4922-54.4922 54.4922Zm-28.8574-54.4922c0 2.58789 1.85547 4.39453 4.58984 4.39453h19.7266v19.7754c0 2.68555 1.85547 4.58984 4.44336 4.58984 2.68555 0 4.54102-1.85547 4.54102-4.58984v-19.7754h19.7754c2.68555 0 4.58984-1.80664 4.58984-4.39453 0-2.73438-1.85547-4.58984-4.58984-4.58984h-19.7754v-19.7266c0-2.73438-1.85547-4.63867-4.54102-4.63867-2.58789 0-4.44336 1.9043-4.44336 4.63867v19.7266h-19.7266c-2.73438 0-4.58984 1.85547-4.58984 4.58984Z"/>
  </g>
  <text style="stroke:none;fill:black;font-family:sans-serif;font-size:13;font-weight:bold;" transform="matrix(1 0 0 1 263 1953)">Design Variations</text>
  <text style="stroke:none;fill:black;font-family:sans-serif;font-size:13;" transform="matrix(1 0 0 1 263 1971)">Symbols are supported in up to nine weights and three scales.</text>
  <text style="stroke:none;fill:black;font-family:sans-serif;font-size:13;" transform="matrix(1 0 0 1 263 1989)">For optimal layout with text and other symbols, vertically align</text>
  <text style="stroke:none;fill:black;font-family:sans-serif;font-size:13;" transform="matrix(1 0 0 1 263 2007)">symbols with the adjacent text.</text>
  <line style="fill:none;stroke:#00AEEF;stroke-width:0.5;opacity:1.0;" x1="776" x2="776" y1="1919" y2="1933"/>
  <g transform="matrix(0.2 0 0 0.2 776 1933)">
   <path d="m16.5527 0.78125c2.58789 0 3.85742-0.976562 4.78516-3.71094l6.29883-17.2363h28.8086l6.29883 17.2363c0.927734 2.73438 2.19727 3.71094 4.73633 3.71094 2.58789 0 4.24805-1.5625 4.24805-4.00391 0-0.830078-0.146484-1.61133-0.537109-2.63672l-22.9004-60.9863c-1.12305-2.97852-3.125-4.49219-6.25-4.49219-3.02734 0-5.07812 1.46484-6.15234 4.44336l-22.9004 61.084c-0.390625 1.02539-0.537109 1.80664-0.537109 2.63672 0 2.44141 1.5625 3.95508 4.10156 3.95508Zm13.4766-28.3691 11.8652-32.8613h0.244141l11.8652 32.8613Z"/>
  </g>
  <line style="fill:none;stroke:#00AEEF;stroke-width:0.5;opacity:1.0;" x1="792.836" x2="792.836" y1="1919" y2="1933"/>
  <text style="stroke:none;fill:black;font-family:sans-serif;font-size:13;font-weight:bold;" transform="matrix(1 0 0 1 776 1953)">Margins</text>
  <text style="stroke:none;fill:black;font-family:sans-serif;font-size:13;" transform="matrix(1 0 0 1 776 1971)">Leading and trailing margins on the left and right side of each symbol</text>
  <text style="stroke:none;fill:black;font-family:sans-serif;font-size:13;" transform="matrix(1 0 0 1 776 1989)">can be adjusted by modifying the x-location of the margin guidelines.</text>
  <text style="stroke:none;fill:black;font-family:sans-serif;font-size:13;" transform="matrix(1 0 0 1 776 2007)">Modifications are automatically applied proportionally to all</text>
  <text style="stroke:none;fill:black;font-family:sans-serif;font-size:13;" transform="matrix(1 0 0 1 776 2025)">scales and weights.</text>
  <g transform="matrix(0.2 0 0 0.2 1289 1933)">
   <path d="m14.209 9.32617 8.49609 8.54492c4.29688 4.3457 9.22852 4.05273 13.8672-1.07422l53.4668-58.9355-4.83398-4.88281-53.0762 58.3984c-1.75781 2.00195-3.41797 2.49023-5.76172 0.146484l-5.85938-5.81055c-2.34375-2.29492-1.80664-4.00391 0.195312-5.81055l57.373-54.0039-4.88281-4.83398-57.959 54.4434c-4.93164 4.58984-5.32227 9.47266-1.02539 13.8184Zm32.0801-90.9668c-2.09961 2.05078-2.24609 4.93164-1.07422 6.88477 1.17188 1.80664 3.4668 2.97852 6.68945 2.14844 7.32422-1.70898 14.9414-2.00195 22.0703 2.68555l-2.92969 7.27539c-1.70898 4.15039-0.830078 7.08008 1.85547 9.81445l11.4746 11.5723c2.44141 2.44141 4.49219 2.53906 7.32422 2.05078l5.32227-0.976562 3.32031 3.36914-0.195312 2.7832c-0.195312 2.49023 0.439453 4.39453 2.88086 6.78711l3.80859 3.71094c2.39258 2.39258 5.46875 2.53906 7.8125 0.195312l14.5508-14.5996c2.34375-2.34375 2.24609-5.32227-0.146484-7.71484l-3.85742-3.80859c-2.39258-2.39258-4.24805-3.17383-6.64062-2.97852l-2.88086 0.244141-3.22266-3.17383 1.2207-5.61523c0.634766-2.83203-0.146484-5.0293-3.07617-7.95898l-10.9863-10.9375c-16.6992-16.6016-38.8672-16.2109-53.3203-1.75781Zm7.4707 1.85547c12.1582-8.88672 28.6133-7.37305 39.7461 3.75977l12.1582 12.0605c1.17188 1.17188 1.36719 2.09961 1.02539 3.80859l-1.61133 7.42188 7.51953 7.42188 4.93164-0.292969c1.26953-0.0488281 1.66016 0.0488281 2.63672 1.02539l2.88086 2.88086-12.207 12.207-2.88086-2.88086c-0.976562-0.976562-1.12305-1.36719-1.07422-2.68555l0.341797-4.88281-7.4707-7.42188-7.61719 1.26953c-1.61133 0.341797-2.34375 0.195312-3.56445-0.976562l-10.0098-10.0098c-1.26953-1.17188-1.41602-2.00195-0.634766-3.85742l4.39453-10.4492c-7.8125-7.27539-17.9688-10.4004-28.125-7.42188-0.78125 0.195312-1.07422-0.439453-0.439453-0.976562Z"/>
  </g>
  <text style="stroke:none;fill:black;font-family:sans-serif;font-size:13;font-weight:bold;" transform="matrix(1 0 0 1 1289 1953)">Exporting</text>
  <text style="stroke:none;fill:black;font-family:sans-serif;font-size:13;" transform="matrix(1 0 0 1 1289 1971)">Symbols should be outlined when exporting to ensure the</text>
  <text style="stroke:none;fill:black;font-family:sans-serif;font-size:13;" transform="matrix(1 0 0 1 1289 1989)">design is preserved when submitting to Xcode.</text>
  <text id="template-version" style="stroke:none;fill:black;font-family:sans-serif;font-size:13;text-anchor:end;" transform="matrix(1 0 0 1 3036 1933)">Template v.6.0</text>
  <text style="stroke:none;fill:black;font-family:sans-serif;font-size:13;text-anchor:end;" transform="matrix(1 0 0 1 3036 1951)">Requires Xcode 16 or greater</text>
  <text id="descriptive-name" style="stroke:none;fill:black;font-family:sans-serif;font-size:13;text-anchor:end;" transform="matrix(1 0 0 1 3036 1969)">Generated from circle.dotted.circle</text>
  <text style="stroke:none;fill:black;font-family:sans-serif;font-size:13;text-anchor:end;" transform="matrix(1 0 0 1 3036 1987)">Typeset at 100.0 points</text>
  <text style="stroke:none;fill:black;font-family:sans-serif;font-size:13;" transform="matrix(1 0 0 1 263 726)">Small</text>
  <text style="stroke:none;fill:black;font-family:sans-serif;font-size:13;" transform="matrix(1 0 0 1 263 1156)">Medium</text>
  <text style="stroke:none;fill:black;font-family:sans-serif;font-size:13;" transform="matrix(1 0 0 1 263 1586)">Large</text>
 </g>
 <g id="Guides">
  <g id="H-reference" style="fill:#27AAE1;stroke:none;" transform="matrix(1 0 0 1 339 696)">
   <path d="M0.993654 0L3.63775 0L29.3281-67.1323L30.0303-67.1323L30.0303-70.459L28.1226-70.459ZM11.6885-24.4799L46.9815-24.4799L46.2315-26.7285L12.4385-26.7285ZM55.1196 0L57.7637 0L30.6382-70.459L29.4326-70.459L29.4326-67.1323Z"/>
  </g>
  <line id="Baseline-S" style="fill:none;stroke:#27AAE1;opacity:1;stroke-width:0.5;" x1="263" x2="3036" y1="696" y2="696"/>
  <line id="Capline-S" style="fill:none;stroke:#27AAE1;opacity:1;stroke-width:0.5;" x1="263" x2="3036" y1="625.541" y2="625.541"/>
  <g id="H-reference" style="fill:#27AAE1;stroke:none;" transform="matrix(1 0 0 1 339 1126)">
   <path d="M0.993654 0L3.63775 0L29.3281-67.1323L30.0303-67.1323L30.0303-70.459L28.1226-70.459ZM11.6885-24.4799L46.9815-24.4799L46.2315-26.7285L12.4385-26.7285ZM55.1196 0L57.7637 0L30.6382-70.459L29.4326-70.459L29.4326-67.1323Z"/>
  </g>
  <line id="Baseline-M" style="fill:none;stroke:#27AAE1;opacity:1;stroke-width:0.5;" x1="263" x2="3036" y1="1126" y2="1126"/>
  <line id="Capline-M" style="fill:none;stroke:#27AAE1;opacity:1;stroke-width:0.5;" x1="263" x2="3036" y1="1055.54" y2="1055.54"/>
  <g id="H-reference" style="fill:#27AAE1;stroke:none;" transform="matrix(1 0 0 1 339 1556)">
   <path d="M0.993654 0L3.63775 0L29.3281-67.1323L30.0303-67.1323L30.0303-70.459L28.1226-70.459ZM11.6885-24.4799L46.9815-24.4799L46.2315-26.7285L12.4385-26.7285ZM55.1196 0L57.7637 0L30.6382-70.459L29.4326-70.459L29.4326-67.1323Z"/>
  </g>
  <line id="Baseline-L" style="fill:none;stroke:#27AAE1;opacity:1;stroke-width:0.5;" x1="263" x2="3036" y1="1556" y2="1556"/>
  <line id="Capline-L" style="fill:none;stroke:#27AAE1;opacity:1;stroke-width:0.5;" x1="263" x2="3036" y1="1485.54" y2="1485.54"/>
  <line id="right-margin-Black-S" style="fill:none;stroke:#00AEEF;stroke-width:0.5;opacity:1.0;" x1="2982.23" x2="2982.23" y1="600.785" y2="720.121"/>
  <line id="left-margin-Black-S" style="fill:none;stroke:#00AEEF;stroke-width:0.5;opacity:1.0;" x1="2884.57" x2="2884.57" y1="600.785" y2="720.121"/>
  <line id="right-margin-Regular-S" style="fill:none;stroke:#00AEEF;stroke-width:0.5;opacity:1.0;" x1="1496.11" x2="1496.11" y1="600.785" y2="720.121"/>
  <line id="left-margin-Regular-S" style="fill:none;stroke:#00AEEF;stroke-width:0.5;opacity:1.0;" x1="1403.58" x2="1403.58" y1="600.785" y2="720.121"/>
  <line id="right-margin-Ultralight-S" style="fill:none;stroke:#00AEEF;stroke-width:0.5;opacity:1.0;" x1="603.773" x2="603.773" y1="600.785" y2="720.121"/>
  <line id="left-margin-Ultralight-S" style="fill:none;stroke:#00AEEF;stroke-width:0.5;opacity:1.0;" x1="515.649" x2="515.649" y1="600.785" y2="720.121"/>
 </g>
 <g id="Symbols">
  <g id="Black-S" transform="matrix(1 0 0 1 2884.57 696)">
   <path class="monochrome-0 multicolor-0:tintColor hierarchical-0:secondary SFSymbolsPreviewWireframe" d="M48.8281 6.73828C72.0215 6.73828 90.8203-12.0605 90.8203-35.2539C90.8203-58.4473 72.0215-77.2461 48.8281-77.2461C25.6348-77.2461 6.83594-58.4473 6.83594-35.2539C6.83594-12.0605 25.6348 6.73828 48.8281 6.73828ZM48.8281-7.42188C33.4473-7.42188 20.9961-19.873 20.9961-35.2539C20.9961-50.6348 33.4473-63.0859 48.8281-63.0859C64.209-63.0859 76.6602-50.6348 76.6602-35.2539C76.6602-19.873 64.209-7.42188 48.8281-7.42188Z"/>
   <path class="monochrome-1 multicolor-1:tintColor hierarchical-1:primary SFSymbolsPreviewWireframe" d="M48.8281-47.168C50.7324-47.168 52.2461-48.6816 52.2461-50.5859C52.2461-52.4902 50.7324-54.0039 48.8281-54.0039C46.9238-54.0039 45.4102-52.4902 45.4102-50.5859C45.4102-48.6816 46.9238-47.168 48.8281-47.168ZM56.543-45.166C58.4473-45.166 59.9609-46.6797 59.9609-48.584C59.9609-50.4883 58.4473-52.002 56.543-52.002C54.6387-52.002 53.125-50.4883 53.125-48.584C53.125-46.6797 54.6387-45.166 56.543-45.166ZM62.207-39.502C64.1113-39.502 65.625-41.0156 65.625-42.9199C65.625-44.8242 64.1113-46.3379 62.207-46.3379C60.3027-46.3379 58.7891-44.8242 58.7891-42.9199C58.7891-41.0156 60.3027-39.502 62.207-39.502ZM64.2578-31.8359C66.1621-31.8359 67.6758-33.3496 67.6758-35.2539C67.6758-37.1582 66.1621-38.6719 64.2578-38.6719C62.3535-38.6719 60.8398-37.1582 60.8398-35.2539C60.8398-33.3496 62.3535-31.8359 64.2578-31.8359ZM62.207-24.1699C64.1113-24.1699 65.625-25.6836 65.625-27.5879C65.625-29.4922 64.1113-31.0059 62.207-31.0059C60.3027-31.0059 58.7891-29.4922 58.7891-27.5879C58.7891-25.6836 60.3027-24.1699 62.207-24.1699ZM56.543-18.5059C58.4473-18.5059 59.9609-20.0195 59.9609-21.9238C59.9609-23.8281 58.4473-25.3418 56.543-25.3418C54.6387-25.3418 53.125-23.8281 53.125-21.9238C53.125-20.0195 54.6387-18.5059 56.543-18.5059ZM48.8281-16.5039C50.7324-16.5039 52.2461-18.0176 52.2461-19.9219C52.2461-21.8262 50.7324-23.3398 48.8281-23.3398C46.9238-23.3398 45.4102-21.8262 45.4102-19.9219C45.4102-18.0176 46.9238-16.5039 48.8281-16.5039ZM41.1133-18.5059C43.0176-18.5059 44.5312-20.0195 44.5312-21.9238C44.5312-23.8281 43.0176-25.3418 41.1133-25.3418C39.209-25.3418 37.6953-23.8281 37.6953-21.9238C37.6953-20.0195 39.209-18.5059 41.1133-18.5059ZM35.4492-24.1699C37.3535-24.1699 38.8672-25.6836 38.8672-27.5879C38.8672-29.4922 37.3535-31.0059 35.4492-31.0059C33.5449-31.0059 32.0312-29.4922 32.0312-27.5879C32.0312-25.6836 33.5449-24.1699 35.4492-24.1699ZM33.3984-31.8359C35.3027-31.8359 36.8164-33.3496 36.8164-35.2539C36.8164-37.1582 35.3027-38.6719 33.3984-38.6719C31.4941-38.6719 29.9805-37.1582 29.9805-35.2539C29.9805-33.3496 31.4941-31.8359 33.3984-31.8359ZM35.4492-39.502C37.3535-39.502 38.8672-41.0156 38.8672-42.9199C38.8672-44.8242 37.3535-46.3379 35.4492-46.3379C33.5449-46.3379 32.0312-44.8242 32.0312-42.9199C32.0312-41.0156 33.5449-39.502 35.4492-39.502ZM41.1133-45.166C43.0176-45.166 44.5312-46.6797 44.5312-48.584C44.5312-50.4883 43.0176-52.002 41.1133-52.002C39.209-52.002 37.6953-50.4883 37.6953-48.584C37.6953-46.6797 39.209-45.166 41.1133-45.166Z"/>
  </g>
  <g id="Regular-S" transform="matrix(1 0 0 1 1403.58 696)">
   <path class="monochrome-0 multicolor-0:tintColor hierarchical-0:secondary SFSymbolsPreviewWireframe" d="M46.2402 4.15039C68.0176 4.15039 85.6934-13.4766 85.6934-35.2539C85.6934-57.0312 68.0176-74.6582 46.2402-74.6582C24.5117-74.6582 6.83594-57.0312 6.83594-35.2539C6.83594-13.4766 24.5117 4.15039 46.2402 4.15039ZM46.2402-3.27148C28.5645-3.27148 14.3066-17.5781 14.3066-35.2539C14.3066-52.9297 28.5645-67.2363 46.2402-67.2363C63.916-67.2363 78.2227-52.9297 78.2227-35.2539C78.2227-17.5781 63.916-3.27148 46.2402-3.27148Z"/>
   <path class="monochrome-1 multicolor-1:tintColor hierarchical-1:primary SFSymbolsPreviewWireframe" d="M46.1914-49.4629C47.9004-49.4629 49.0723-50.6836 49.0723-52.3438C49.0723-54.0039 47.9004-55.2246 46.1914-55.2246C44.5312-55.2246 43.3105-54.0039 43.3105-52.3438C43.3105-50.6836 44.5312-49.4629 46.1914-49.4629ZM54.7852-47.168C56.4941-47.168 57.666-48.3887 57.666-50.0488C57.666-51.709 56.4941-52.9297 54.7852-52.9297C53.125-52.9297 51.9043-51.709 51.9043-50.0488C51.9043-48.3887 53.125-47.168 54.7852-47.168ZM61.0352-40.918C62.7441-40.918 63.916-42.1387 63.916-43.7988C63.916-45.459 62.7441-46.6797 61.0352-46.6797C59.375-46.6797 58.1543-45.459 58.1543-43.7988C58.1543-42.1387 59.375-40.918 61.0352-40.918ZM63.3301-32.3242C65.0391-32.3242 66.2109-33.5449 66.2109-35.2051C66.2109-36.8652 65.0391-38.0859 63.3301-38.0859C61.6699-38.0859 60.4492-36.8652 60.4492-35.2051C60.4492-33.5449 61.6699-32.3242 63.3301-32.3242ZM61.0352-23.7305C62.7441-23.7305 63.916-24.9512 63.916-26.6113C63.916-28.2715 62.7441-29.4922 61.0352-29.4922C59.375-29.4922 58.1543-28.2715 58.1543-26.6113C58.1543-24.9512 59.375-23.7305 61.0352-23.7305ZM54.7852-17.4805C56.4941-17.4805 57.666-18.7012 57.666-20.3613C57.666-22.0215 56.4941-23.2422 54.7852-23.2422C53.125-23.2422 51.9043-22.0215 51.9043-20.3613C51.9043-18.7012 53.125-17.4805 54.7852-17.4805ZM46.1914-15.1855C47.9004-15.1855 49.0723-16.4062 49.0723-18.0664C49.0723-19.7266 47.9004-20.9473 46.1914-20.9473C44.5312-20.9473 43.3105-19.7266 43.3105-18.0664C43.3105-16.4062 44.5312-15.1855 46.1914-15.1855ZM37.5977-17.4805C39.3066-17.4805 40.4785-18.7012 40.4785-20.3613C40.4785-22.0215 39.3066-23.2422 37.5977-23.2422C35.9375-23.2422 34.7656-22.0215 34.7656-20.3613C34.7656-18.7012 35.9375-17.4805 37.5977-17.4805ZM31.3477-23.7305C33.0566-23.7305 34.2285-24.9512 34.2285-26.6113C34.2285-28.2715 33.0566-29.4922 31.3477-29.4922C29.6875-29.4922 28.4668-28.2715 28.4668-26.6113C28.4668-24.9512 29.6875-23.7305 31.3477-23.7305ZM29.0527-32.3242C30.7617-32.3242 31.9336-33.5449 31.9336-35.2051C31.9336-36.8652 30.7617-38.0859 29.0527-38.0859C27.3926-38.0859 26.1719-36.8652 26.1719-35.2051C26.1719-33.5449 27.3926-32.3242 29.0527-32.3242ZM31.3477-40.918C33.0566-40.918 34.2285-42.1387 34.2285-43.7988C34.2285-45.459 33.0566-46.6797 31.3477-46.6797C29.6875-46.6797 28.4668-45.459 28.4668-43.7988C28.4668-42.1387 29.6875-40.918 31.3477-40.918ZM37.5977-47.168C39.3066-47.168 40.4785-48.3887 40.4785-50.0488C40.4785-51.709 39.3066-52.9297 37.5977-52.9297C35.9375-52.9297 34.7656-51.709 34.7656-50.0488C34.7656-48.3887 35.9375-47.168 37.5977-47.168Z"/>
  </g>
  <g id="Ultralight-S" transform="matrix(1 0 0 1 515.649 696)">
   <path class="monochrome-0 multicolor-0:tintColor hierarchical-0:secondary SFSymbolsPreviewWireframe" d="M44.0606 1.97072C64.6118 1.97072 81.2886-14.7026 81.2886-35.2539C81.2886-55.8052 64.6118-72.4785 44.0606-72.4785C23.5127-72.4785 6.83594-55.8052 6.83594-35.2539C6.83594-14.7026 23.5127 1.97072 44.0606 1.97072ZM44.0606-0.274438C24.7046-0.274438 9.0391-15.898 9.0391-35.2539C9.0391-54.6099 24.7046-70.2334 44.0606-70.2334C63.4165-70.2334 79.04-54.6099 79.04-35.2539C79.04-15.898 63.4165-0.274438 44.0606-0.274438Z"/>
   <path class="monochrome-1 multicolor-1:tintColor hierarchical-1:primary SFSymbolsPreviewWireframe" d="M44.0571-50.3257C45.1758-50.3257 46.0752-51.2285 46.0752-52.3438C46.0752-53.459 45.1758-54.3618 44.0571-54.3618C42.9419-54.3618 42.0391-53.459 42.0391-52.3438C42.0391-51.2285 42.9419-50.3257 44.0571-50.3257ZM52.6055-48.0308C53.7241-48.0308 54.6236-48.9336 54.6236-50.0488C54.6236-51.1641 53.7241-52.0669 52.6055-52.0669C51.4902-52.0669 50.5874-51.1641 50.5874-50.0488C50.5874-48.9336 51.4902-48.0308 52.6055-48.0308ZM58.9009-41.7353C60.0196-41.7353 60.919-42.6382 60.919-43.7534C60.919-44.8687 60.0196-45.7715 58.9009-45.7715C57.7857-45.7715 56.8828-44.8687 56.8828-43.7534C56.8828-42.6382 57.7857-41.7353 58.9009-41.7353ZM61.1958-33.187C62.3145-33.187 63.2139-34.0898 63.2139-35.2051C63.2139-36.3203 62.3145-37.2232 61.1958-37.2232C60.0806-37.2232 59.1777-36.3203 59.1777-35.2051C59.1777-34.0898 60.0806-33.187 61.1958-33.187ZM58.9009-24.6387C60.0196-24.6387 60.919-25.5415 60.919-26.6567C60.919-27.772 60.0196-28.6748 58.9009-28.6748C57.7857-28.6748 56.8828-27.772 56.8828-26.6567C56.8828-25.5415 57.7857-24.6387 58.9009-24.6387ZM52.6055-18.3433C53.7241-18.3433 54.6236-19.2461 54.6236-20.3613C54.6236-21.4766 53.7241-22.3794 52.6055-22.3794C51.4902-22.3794 50.5874-21.4766 50.5874-20.3613C50.5874-19.2461 51.4902-18.3433 52.6055-18.3433ZM44.0571-16.0483C45.1758-16.0483 46.0752-16.9512 46.0752-18.0664C46.0752-19.1816 45.1758-20.0845 44.0571-20.0845C42.9419-20.0845 42.0391-19.1816 42.0391-18.0664C42.0391-16.9512 42.9419-16.0483 44.0571-16.0483ZM35.5088-18.3433C36.6275-18.3433 37.5269-19.2461 37.5269-20.3613C37.5269-21.4766 36.6275-22.3794 35.5088-22.3794C34.3936-22.3794 33.4942-21.4766 33.4942-20.3613C33.4942-19.2461 34.3936-18.3433 35.5088-18.3433ZM29.2134-24.6387C30.3321-24.6387 31.2315-25.5415 31.2315-26.6567C31.2315-27.772 30.3321-28.6748 29.2134-28.6748C28.0982-28.6748 27.1953-27.772 27.1953-26.6567C27.1953-25.5415 28.0982-24.6387 29.2134-24.6387ZM26.9185-33.187C28.0371-33.187 28.9365-34.0898 28.9365-35.2051C28.9365-36.3203 28.0371-37.2232 26.9185-37.2232C25.8032-37.2232 24.9004-36.3203 24.9004-35.2051C24.9004-34.0898 25.8032-33.187 26.9185-33.187ZM29.2134-41.7353C30.3321-41.7353 31.2315-42.6382 31.2315-43.7534C31.2315-44.8687 30.3321-45.7715 29.2134-45.7715C28.0982-45.7715 27.1953-44.8687 27.1953-43.7534C27.1953-42.6382 28.0982-41.7353 29.2134-41.7353ZM35.5088-48.0308C36.6275-48.0308 37.5269-48.9336 37.5269-50.0488C37.5269-51.1641 36.6275-52.0669 35.5088-52.0669C34.3936-52.0669 33.4942-51.1641 33.4942-50.0488C33.4942-48.9336 34.3936-48.0308 35.5088-48.0308Z"/>
  </g>
 </g>
</svg>
